<svg version="1.1" id="Layer_1" xmlns="http://www.w3.org/2000/svg" xmlns:xlink="http://www.w3.org/1999/xlink" x="0px" y="0px"
	 width="100%" viewBox="0 0 608 290" enable-background="new 0 0 608 290" xml:space="preserve">
<path fill="none" opacity="1.000000" stroke="#000000" stroke-linecap="round" stroke-linejoin="round" stroke-width="3.000000"
	d="
M424.000000,119.500000 
	C424.000000,145.166672 424.000000,170.833328 424.000000,196.500000 
"/>
<path fill="none" opacity="1.000000" stroke="#000000" stroke-linecap="round" stroke-linejoin="round" stroke-width="3.000000"
	d="
M361.000000,119.500000 
	C361.000000,145.166672 361.000000,170.833328 361.000000,196.500000 
"/>
<path fill="none" opacity="1.000000" stroke="#000000" stroke-linecap="round" stroke-linejoin="round" stroke-width="3.000000"
	d="
M95.000000,119.500000 
	C95.000000,145.166672 95.000000,170.833328 95.000000,196.500000 
"/>
<path fill="none" opacity="1.000000" stroke="#000000" stroke-linecap="round" stroke-linejoin="round" stroke-width="4.000000"
	d="
M517.500000,120.500000 
	C517.500000,145.500000 517.500000,170.500000 517.500000,195.500000 
"/>
<path fill="none" opacity="1.000000" stroke="#000000" stroke-linecap="round" stroke-linejoin="round" stroke-width="3.000000"
	d="
M455.000000,119.500000 
	C455.000000,136.500000 455.000000,153.500000 455.000000,170.500000 
"/>
<path fill="none" opacity="1.000000" stroke="#000000" stroke-linecap="round" stroke-linejoin="round" stroke-width="3.000000"
	d="
M189.000000,145.500000 
	C189.000000,162.500000 189.000000,179.500000 189.000000,196.500000 
"/>
<path fill="none" opacity="1.000000" stroke="#000000" stroke-linecap="round" stroke-linejoin="round" stroke-width="4.000000"
	d="
M251.500000,146.500000 
	C251.500000,162.833328 251.500000,179.166672 251.500000,195.500000 
"/>
<path fill="none" opacity="1.000000" stroke="#000000" stroke-linecap="round" stroke-linejoin="round" stroke-width="4.000000"
	d="
M157.500000,146.500000 
	C157.500000,162.833328 157.500000,179.166672 157.500000,195.500000 
"/>
<path fill="none" opacity="1.000000" stroke="#000000" stroke-linecap="round" stroke-linejoin="round" stroke-width="3.000000"
	d="
M328.500000,116.000000 
	C313.166656,116.000000 297.833344,116.000000 282.500000,116.000000 
"/>
<path fill="none" opacity="1.000000" stroke="#000000" stroke-linecap="round" stroke-linejoin="round" stroke-width="3.000000"
	d="
M320.500000,194.000000 
	C306.833344,194.000000 293.166656,193.990799 279.500031,194.011871 
	C277.825500,194.014450 276.103210,193.698730 274.500000,194.500000 
"/>
<path fill="none" opacity="1.000000" stroke="#000000" stroke-linecap="round" stroke-linejoin="round" stroke-width="3.000000"
	d="
M500.500000,220.000000 
	C486.833344,220.000000 473.166656,219.990799 459.500031,220.011871 
	C457.825500,220.014450 456.103210,219.698730 454.500000,220.500000 
"/>
<path fill="none" opacity="1.000000" stroke="#000000" stroke-linecap="round" stroke-linejoin="round" stroke-width="3.000000"
	d="
M234.500000,116.000000 
	C220.833328,116.000000 207.166656,115.990791 193.500015,116.011864 
	C191.825500,116.014450 190.103210,115.698730 188.500000,116.500000 
"/>
<path fill="none" opacity="1.000000" stroke="#000000" stroke-linecap="round" stroke-linejoin="round" stroke-width="3.000000"
	d="
M414.500000,194.000000 
	C404.500000,194.000000 394.500000,194.000000 384.500000,194.000000 
"/>
<path fill="none" opacity="1.000000" stroke="#000000" stroke-linecap="round" stroke-linejoin="round" stroke-width="3.000000"
	d="
M414.500000,142.000000 
	C404.500000,142.000000 394.500000,142.000000 384.500000,142.000000 
"/>
<path fill="none" opacity="1.000000" stroke="#000000" stroke-linecap="round" stroke-linejoin="round" stroke-width="3.000000"
	d="
M126.000000,145.500000 
	C126.000000,162.500000 126.000000,179.500000 126.000000,196.500000 
"/>
<path fill="none" opacity="1.000000" stroke="#000000" stroke-linecap="round" stroke-linejoin="round" stroke-width="3.000000"
	d="
M220.000000,145.500000 
	C220.000000,162.500000 220.000000,179.500000 220.000000,196.500000 
"/>
<path fill="none" opacity="1.000000" stroke="#000000" stroke-linecap="round" stroke-linejoin="round" stroke-width="3.000000"
	d="
M486.000000,119.500000 
	C486.000000,136.500000 486.000000,153.500000 486.000000,170.500000 
"/>
<path fill="none" opacity="1.000000" stroke="#000000" stroke-linecap="round" stroke-linejoin="round" stroke-width="3.000000"
	d="
M392.000000,145.500000 
	C392.000000,153.833328 392.000000,162.166672 392.000000,170.500000 
"/>
<path fill="none" opacity="1.000000" stroke="#000000" stroke-linecap="round" stroke-linejoin="round" stroke-width="3.000000"
	d="
M330.000000,171.500000 
	C330.000000,179.833328 330.000000,188.166672 330.000000,196.500000 
"/>
<path fill="none" opacity="1.000000" stroke="#000000" stroke-linecap="round" stroke-linejoin="round" stroke-width="3.000000"
	d="
M369.000000,93.500000 
	C369.000000,101.833336 369.000000,110.166664 369.000000,118.500000 
"/>
<path fill="none" opacity="1.000000" stroke="#000000" stroke-linecap="round" stroke-linejoin="round" stroke-width="3.000000"
	d="
M400.000000,93.500000 
	C400.000000,101.833336 400.000000,110.166664 400.000000,118.500000 
"/>
<path fill="none" opacity="1.000000" stroke="#000000" stroke-linecap="round" stroke-linejoin="round" stroke-width="3.000000"
	d="
M447.000000,197.500000 
	C447.000000,205.833328 447.000000,214.166672 447.000000,222.500000 
"/>
<path fill="none" opacity="1.000000" stroke="#000000" stroke-linecap="round" stroke-linejoin="round" stroke-width="4.000000"
	d="
M337.500000,94.500000 
	C337.500000,102.166664 337.500000,109.833336 337.500000,117.500000 
"/>
<path fill="none" opacity="1.000000" stroke="#000000" stroke-linecap="round" stroke-linejoin="round" stroke-width="3.000000"
	d="
M229.500000,121.000000 
	C233.830551,125.962257 235.486389,132.340591 238.508102,137.995682 
	C239.013962,138.942383 238.718384,140.558624 240.500000,140.500000 
"/>
<path fill="none" opacity="1.000000" stroke="#000000" stroke-linecap="round" stroke-linejoin="round" stroke-width="3.000000"
	d="
M432.500000,172.500000 
	C436.166992,173.916458 435.780029,177.877167 437.394379,180.563477 
	C439.646851,184.311569 441.166656,188.500000 443.000000,192.500000 
"/>
<path fill="none" opacity="1.000000" stroke="#000000" stroke-linecap="round" stroke-linejoin="round" stroke-width="3.000000"
	d="
M370.500000,173.000000 
	C374.830566,177.962250 376.486359,184.340607 379.508087,189.995682 
	C380.013947,190.942383 379.718384,192.558624 381.500000,192.500000 
"/>
<path fill="none" opacity="1.000000" stroke="#000000" stroke-linecap="round" stroke-linejoin="round" stroke-width="3.000000"
	d="
M323.500000,121.000000 
	C327.830566,125.962257 329.486359,132.340607 332.508087,137.995682 
	C333.013947,138.942383 332.718384,140.558624 334.500000,140.500000 
"/>
<path fill="none" opacity="1.000000" stroke="#000000" stroke-linecap="round" stroke-linejoin="round" stroke-width="3.000000"
	d="
M260.500000,172.500000 
	C264.228119,175.224045 264.481506,179.843323 266.491516,183.504654 
	C268.034119,186.314590 269.500000,189.166672 271.000000,192.000000 
"/>
<path fill="none" opacity="1.000000" stroke="#000000" stroke-linecap="round" stroke-linejoin="round" stroke-width="3.000000"
	d="
M271.000000,121.000000 
	C268.333344,126.500000 265.691193,132.012131 262.980408,137.490295 
	C262.402679,138.657776 262.190582,140.214371 260.500000,140.500000 
"/>
<path fill="none" opacity="1.000000" stroke="#000000" stroke-linecap="round" stroke-linejoin="round" stroke-width="3.000000"
	d="
M514.500000,199.000000 
	C510.906464,202.460953 510.019073,207.433029 507.537476,211.522736 
	C506.216858,213.699066 506.071716,216.595413 503.500000,218.000000 
"/>
<path fill="none" opacity="1.000000" stroke="#000000" stroke-linecap="round" stroke-linejoin="round" stroke-width="3.000000"
	d="
M334.500000,147.000000 
	C330.906464,150.460953 330.019104,155.433029 327.537476,159.522736 
	C326.216858,161.699066 326.071716,164.595413 323.500000,166.000000 
"/>
<path fill="none" opacity="1.000000" stroke="#000000" stroke-linecap="round" stroke-linejoin="round" stroke-width="3.000000"
	d="
M172.500000,116.000000 
	C164.000000,116.000000 155.499924,115.981323 147.000061,116.014763 
	C145.161026,116.021996 143.271820,115.656639 141.500000,116.500000 
"/>
<path fill="none" opacity="1.000000" stroke="#000000" stroke-linecap="round" stroke-linejoin="round" stroke-width="3.000000"
	d="
M242.500000,194.000000 
	C237.504166,194.291748 232.468826,193.398270 227.500000,194.500000 
"/>
<path fill="none" opacity="1.000000" stroke="#000000" stroke-linecap="round" stroke-linejoin="round" stroke-width="3.000000"
	d="
M352.500000,194.000000 
	C347.500000,194.000000 342.500000,194.000000 337.500000,194.000000 
"/>
<path fill="none" opacity="1.000000" stroke="#000000" stroke-linecap="round" stroke-linejoin="round" stroke-width="3.000000"
	d="
M477.500000,194.000000 
	C467.500000,194.000000 457.500000,194.000000 447.500000,194.000000 
"/>
<path fill="none" opacity="1.000000" stroke="#000000" stroke-linecap="round" stroke-linejoin="round" stroke-width="3.000000"
	d="
M117.500000,194.000000 
	C112.500000,194.000000 107.500000,194.000000 102.500000,194.000000 
"/>
<path fill="none" opacity="1.000000" stroke="#000000" stroke-linecap="round" stroke-linejoin="round" stroke-width="3.000000"
	d="
M180.500000,194.000000 
	C175.500000,194.000000 170.500000,194.000000 165.500000,194.000000 
"/>
<path fill="none" opacity="1.000000" stroke="#000000" stroke-linecap="round" stroke-linejoin="round" stroke-width="3.000000"
	d="
M352.500000,90.000000 
	C347.500000,90.000000 342.500000,90.000000 337.500000,90.000000 
"/>
<path fill="none" opacity="1.000000" stroke="#000000" stroke-linecap="round" stroke-linejoin="round" stroke-width="3.000000"
	d="
M477.500000,168.000000 
	C472.500000,168.000000 467.500000,168.000000 462.500000,168.000000 
"/>
<path fill="none" opacity="1.000000" stroke="#000000" stroke-linecap="round" stroke-linejoin="round" stroke-width="3.000000"
	d="
M125.500000,116.000000 
	C120.500000,116.000000 115.500000,116.000000 110.500000,116.000000 
"/>
<path fill="none" opacity="1.000000" stroke="#000000" stroke-linecap="round" stroke-linejoin="round" stroke-width="3.000000"
	d="
M320.500000,168.000000 
	C310.500000,168.000000 300.500000,168.000000 290.500000,168.000000 
"/>
<path fill="none" opacity="1.000000" stroke="#000000" stroke-linecap="round" stroke-linejoin="round" stroke-width="3.000000"
	d="
M305.500000,142.000000 
	C300.500000,142.000000 295.500000,142.000000 290.500000,142.000000 
"/>
<path fill="none" opacity="1.000000" stroke="#000000" stroke-linecap="round" stroke-linejoin="round" stroke-width="3.000000"
	d="
M211.500000,142.000000 
	C206.500000,142.000000 201.500000,142.000000 196.500000,142.000000 
"/>
<path fill="none" opacity="1.000000" stroke="#000000" stroke-linecap="round" stroke-linejoin="round" stroke-width="3.000000"
	d="
M422.500000,116.000000 
	C417.504181,116.291748 412.468842,115.398277 407.500000,116.500000 
"/>
<path fill="none" opacity="1.000000" stroke="#000000" stroke-linecap="round" stroke-linejoin="round" stroke-width="3.000000"
	d="
M516.500000,116.000000 
	C511.504181,116.291748 506.468842,115.398277 501.500000,116.500000 
"/>
<path fill="none" opacity="1.000000" stroke="#000000" stroke-linecap="round" stroke-linejoin="round" stroke-width="3.000000"
	d="
M453.500000,116.000000 
	C448.833344,116.000000 444.166656,116.000000 439.500000,116.000000 
"/>
<path fill="none" opacity="1.000000" stroke="#000000" stroke-linecap="round" stroke-linejoin="round" stroke-width="3.000000"
	d="
M148.500000,142.000000 
	C143.833328,142.000000 139.166672,142.000000 134.500000,142.000000 
"/>
<path fill="none" opacity="1.000000" stroke="#000000" stroke-linecap="round" stroke-linejoin="round" stroke-width="3.000000"
	d="
M320.500000,90.000000 
	C315.833344,90.000000 311.166656,90.000000 306.500000,90.000000 
"/>
<path fill="none" opacity="1.000000" stroke="#000000" stroke-linecap="round" stroke-linejoin="round" stroke-width="3.000000"
	d="
M414.500000,168.000000 
	C409.833344,168.000000 405.166656,168.000000 400.500000,168.000000 
"/>
<path fill="none" opacity="1.000000" stroke="#000000" stroke-linecap="round" stroke-linejoin="round" stroke-width="4.000000"
	d="
M486.000000,188.250000 
	C484.816925,190.324142 485.534912,193.462891 482.500000,194.500000 
"/>
</svg>