<svg width="24" height="24" viewBox="0 0 24 24" fill="none" xmlns="http://www.w3.org/2000/svg">
<path d="M4.32104 23.6225C5.26987 23.6225 6.03905 22.8256 6.03905 21.8427C6.03905 20.8598 5.26987 20.0629 4.32104 20.0629C3.37221 20.0629 2.60304 20.8598 2.60304 21.8427C2.60304 22.8256 3.37221 23.6225 4.32104 23.6225Z" fill="#58C4FF"/>
<path fill-rule="evenodd" clip-rule="evenodd" d="M10.4642 13.6978L5.84306 22.7056L2.81128 21.0349L7.43245 12.027L10.4642 13.6978Z" fill="#58C4FF"/>
<path fill-rule="evenodd" clip-rule="evenodd" d="M12.0781 3.01911L7.42553 12.027L4.3731 10.3562L9.02567 1.34833L12.0781 3.01911Z" fill="#58C4FF"/>
<path d="M10.5163 3.93705C11.4651 3.93705 12.2343 3.14022 12.2343 2.15728C12.2343 1.17433 11.4651 0.377502 10.5163 0.377502C9.56746 0.377502 8.79826 1.17433 8.79826 2.15728C8.79826 3.14022 9.56746 3.93705 10.5163 3.93705Z" fill="#58C4FF"/>
<path fill-rule="evenodd" clip-rule="evenodd" d="M18.7404 0.430526C19.5061 0.628154 20.0434 1.34011 20.0434 2.15702V21.8427H16.6057V9.29358L13.4995 15.3413L10.4642 13.6705L16.8069 1.32167C17.1774 0.600384 17.9747 0.232899 18.7404 0.430526Z" fill="#58C4FF"/>
<path d="M18.3254 23.6225C19.2742 23.6225 20.0434 22.8256 20.0434 21.8427C20.0434 20.8598 19.2742 20.0629 18.3254 20.0629C17.3766 20.0629 16.6074 20.8598 16.6074 21.8427C16.6074 22.8256 17.3766 23.6225 18.3254 23.6225Z" fill="#58C4FF"/>
</svg>
